<svg aria-roledescription="mindmap" viewBox="5 5.000001907348633 1182.00537109375 715.65185546875" style="max-width: 100%;" xmlns="http://www.w3.org/2000/svg" width="100%" id="graph-div" height="100%" xmlns:xlink="http://www.w3.org/1999/xlink"><style>@import url("https://cdnjs.cloudflare.com/ajax/libs/font-awesome/6.2.1/css/all.min.css");'</style><style>#graph-div{font-family:"trebuchet ms",verdana,arial,sans-serif;font-size:16px;fill:#333;}#graph-div .error-icon{fill:#552222;}#graph-div .error-text{fill:#552222;stroke:#552222;}#graph-div .edge-thickness-normal{stroke-width:2px;}#graph-div .edge-thickness-thick{stroke-width:3.5px;}#graph-div .edge-pattern-solid{stroke-dasharray:0;}#graph-div .edge-pattern-dashed{stroke-dasharray:3;}#graph-div .edge-pattern-dotted{stroke-dasharray:2;}#graph-div .marker{fill:#333333;stroke:#333333;}#graph-div .marker.cross{stroke:#333333;}#graph-div svg{font-family:"trebuchet ms",verdana,arial,sans-serif;font-size:16px;}#graph-div .edge{stroke-width:3;}#graph-div .section--1 rect,#graph-div .section--1 path,#graph-div .section--1 circle,#graph-div .section--1 polygon,#graph-div .section--1 path{fill:hsl(240, 100%, 76.2745098039%);}#graph-div .section--1 text{fill:#ffffff;}#graph-div .node-icon--1{font-size:40px;color:#ffffff;}#graph-div .section-edge--1{stroke:hsl(240, 100%, 76.2745098039%);}#graph-div .edge-depth--1{stroke-width:17;}#graph-div .section--1 line{stroke:hsl(60, 100%, 86.2745098039%);stroke-width:3;}#graph-div .disabled,#graph-div .disabled circle,#graph-div .disabled text{fill:lightgray;}#graph-div .disabled text{fill:#efefef;}#graph-div .section-0 rect,#graph-div .section-0 path,#graph-div .section-0 circle,#graph-div .section-0 polygon,#graph-div .section-0 path{fill:hsl(60, 100%, 73.5294117647%);}#graph-div .section-0 text{fill:black;}#graph-div .node-icon-0{font-size:40px;color:black;}#graph-div .section-edge-0{stroke:hsl(60, 100%, 73.5294117647%);}#graph-div .edge-depth-0{stroke-width:14;}#graph-div .section-0 line{stroke:hsl(240, 100%, 83.5294117647%);stroke-width:3;}#graph-div .disabled,#graph-div .disabled circle,#graph-div .disabled text{fill:lightgray;}#graph-div .disabled text{fill:#efefef;}#graph-div .section-1 rect,#graph-div .section-1 path,#graph-div .section-1 circle,#graph-div .section-1 polygon,#graph-div .section-1 path{fill:hsl(80, 100%, 76.2745098039%);}#graph-div .section-1 text{fill:black;}#graph-div .node-icon-1{font-size:40px;color:black;}#graph-div .section-edge-1{stroke:hsl(80, 100%, 76.2745098039%);}#graph-div .edge-depth-1{stroke-width:11;}#graph-div .section-1 line{stroke:hsl(260, 100%, 86.2745098039%);stroke-width:3;}#graph-div .disabled,#graph-div .disabled circle,#graph-div .disabled text{fill:lightgray;}#graph-div .disabled text{fill:#efefef;}#graph-div .section-2 rect,#graph-div .section-2 path,#graph-div .section-2 circle,#graph-div .section-2 polygon,#graph-div .section-2 path{fill:hsl(270, 100%, 76.2745098039%);}#graph-div .section-2 text{fill:#ffffff;}#graph-div .node-icon-2{font-size:40px;color:#ffffff;}#graph-div .section-edge-2{stroke:hsl(270, 100%, 76.2745098039%);}#graph-div .edge-depth-2{stroke-width:8;}#graph-div .section-2 line{stroke:hsl(90, 100%, 86.2745098039%);stroke-width:3;}#graph-div .disabled,#graph-div .disabled circle,#graph-div .disabled text{fill:lightgray;}#graph-div .disabled text{fill:#efefef;}#graph-div .section-3 rect,#graph-div .section-3 path,#graph-div .section-3 circle,#graph-div .section-3 polygon,#graph-div .section-3 path{fill:hsl(300, 100%, 76.2745098039%);}#graph-div .section-3 text{fill:black;}#graph-div .node-icon-3{font-size:40px;color:black;}#graph-div .section-edge-3{stroke:hsl(300, 100%, 76.2745098039%);}#graph-div .edge-depth-3{stroke-width:5;}#graph-div .section-3 line{stroke:hsl(120, 100%, 86.2745098039%);stroke-width:3;}#graph-div .disabled,#graph-div .disabled circle,#graph-div .disabled text{fill:lightgray;}#graph-div .disabled text{fill:#efefef;}#graph-div .section-4 rect,#graph-div .section-4 path,#graph-div .section-4 circle,#graph-div .section-4 polygon,#graph-div .section-4 path{fill:hsl(330, 100%, 76.2745098039%);}#graph-div .section-4 text{fill:black;}#graph-div .node-icon-4{font-size:40px;color:black;}#graph-div .section-edge-4{stroke:hsl(330, 100%, 76.2745098039%);}#graph-div .edge-depth-4{stroke-width:2;}#graph-div .section-4 line{stroke:hsl(150, 100%, 86.2745098039%);stroke-width:3;}#graph-div .disabled,#graph-div .disabled circle,#graph-div .disabled text{fill:lightgray;}#graph-div .disabled text{fill:#efefef;}#graph-div .section-5 rect,#graph-div .section-5 path,#graph-div .section-5 circle,#graph-div .section-5 polygon,#graph-div .section-5 path{fill:hsl(0, 100%, 76.2745098039%);}#graph-div .section-5 text{fill:black;}#graph-div .node-icon-5{font-size:40px;color:black;}#graph-div .section-edge-5{stroke:hsl(0, 100%, 76.2745098039%);}#graph-div .edge-depth-5{stroke-width:-1;}#graph-div .section-5 line{stroke:hsl(180, 100%, 86.2745098039%);stroke-width:3;}#graph-div .disabled,#graph-div .disabled circle,#graph-div .disabled text{fill:lightgray;}#graph-div .disabled text{fill:#efefef;}#graph-div .section-6 rect,#graph-div .section-6 path,#graph-div .section-6 circle,#graph-div .section-6 polygon,#graph-div .section-6 path{fill:hsl(30, 100%, 76.2745098039%);}#graph-div .section-6 text{fill:black;}#graph-div .node-icon-6{font-size:40px;color:black;}#graph-div .section-edge-6{stroke:hsl(30, 100%, 76.2745098039%);}#graph-div .edge-depth-6{stroke-width:-4;}#graph-div .section-6 line{stroke:hsl(210, 100%, 86.2745098039%);stroke-width:3;}#graph-div .disabled,#graph-div .disabled circle,#graph-div .disabled text{fill:lightgray;}#graph-div .disabled text{fill:#efefef;}#graph-div .section-7 rect,#graph-div .section-7 path,#graph-div .section-7 circle,#graph-div .section-7 polygon,#graph-div .section-7 path{fill:hsl(90, 100%, 76.2745098039%);}#graph-div .section-7 text{fill:black;}#graph-div .node-icon-7{font-size:40px;color:black;}#graph-div .section-edge-7{stroke:hsl(90, 100%, 76.2745098039%);}#graph-div .edge-depth-7{stroke-width:-7;}#graph-div .section-7 line{stroke:hsl(270, 100%, 86.2745098039%);stroke-width:3;}#graph-div .disabled,#graph-div .disabled circle,#graph-div .disabled text{fill:lightgray;}#graph-div .disabled text{fill:#efefef;}#graph-div .section-8 rect,#graph-div .section-8 path,#graph-div .section-8 circle,#graph-div .section-8 polygon,#graph-div .section-8 path{fill:hsl(150, 100%, 76.2745098039%);}#graph-div .section-8 text{fill:black;}#graph-div .node-icon-8{font-size:40px;color:black;}#graph-div .section-edge-8{stroke:hsl(150, 100%, 76.2745098039%);}#graph-div .edge-depth-8{stroke-width:-10;}#graph-div .section-8 line{stroke:hsl(330, 100%, 86.2745098039%);stroke-width:3;}#graph-div .disabled,#graph-div .disabled circle,#graph-div .disabled text{fill:lightgray;}#graph-div .disabled text{fill:#efefef;}#graph-div .section-9 rect,#graph-div .section-9 path,#graph-div .section-9 circle,#graph-div .section-9 polygon,#graph-div .section-9 path{fill:hsl(180, 100%, 76.2745098039%);}#graph-div .section-9 text{fill:black;}#graph-div .node-icon-9{font-size:40px;color:black;}#graph-div .section-edge-9{stroke:hsl(180, 100%, 76.2745098039%);}#graph-div .edge-depth-9{stroke-width:-13;}#graph-div .section-9 line{stroke:hsl(0, 100%, 86.2745098039%);stroke-width:3;}#graph-div .disabled,#graph-div .disabled circle,#graph-div .disabled text{fill:lightgray;}#graph-div .disabled text{fill:#efefef;}#graph-div .section-10 rect,#graph-div .section-10 path,#graph-div .section-10 circle,#graph-div .section-10 polygon,#graph-div .section-10 path{fill:hsl(210, 100%, 76.2745098039%);}#graph-div .section-10 text{fill:black;}#graph-div .node-icon-10{font-size:40px;color:black;}#graph-div .section-edge-10{stroke:hsl(210, 100%, 76.2745098039%);}#graph-div .edge-depth-10{stroke-width:-16;}#graph-div .section-10 line{stroke:hsl(30, 100%, 86.2745098039%);stroke-width:3;}#graph-div .disabled,#graph-div .disabled circle,#graph-div .disabled text{fill:lightgray;}#graph-div .disabled text{fill:#efefef;}#graph-div .section-root rect,#graph-div .section-root path,#graph-div .section-root circle,#graph-div .section-root polygon{fill:hsl(240, 100%, 46.2745098039%);}#graph-div .section-root text{fill:#ffffff;}#graph-div .icon-container{height:100%;display:flex;justify-content:center;align-items:center;}#graph-div .edge{fill:none;}#graph-div :root{--mermaid-font-family:"trebuchet ms",verdana,arial,sans-serif;}</style><g></g><g></g><g class="mindmap-edges"><path class="edge section-edge--1 edge-depth-2" d="M 885.7091378251585,295.77221251278417 L 955.124307510139,306.8075030625443 L1024.5394771951198,317.84279361230443"></path><path class="edge section-edge--1 edge-depth-3" d="M 954.1072384836257,200.92903518951536 L 966.4539673432798,170.9042078045433 L978.8006962029338,140.87938041957122"></path><path class="edge section-edge--1 edge-depth-3" d="M 936.7402314603148,205.36833000075143 L 904.0353336783637,178.91347329197455 L871.3304358964126,152.45861658319768"></path><path class="edge section-edge--1 edge-depth-3" d="M 963.2493172903036,212.66375530613266 L 1040.5379477854262,201.53325765656763 L1117.8265782805488,190.40276000700254"></path><path class="edge section-edge--1 edge-depth-2" d="M 881.4262315459848,282.7355535009962 L 909.6488261937159,254.1095186576468 L937.8714208414469,225.48348381429736"></path><path class="edge section-edge--1 edge-depth-1" d="M 767.492881807358,344.57945794126874 L 812.4718671554858,322.3243568955834 L857.4508525036136,300.069255849898"></path><path class="edge section-edge--1 edge-depth-1" d="M 749.5808241664689,365.550747729323 L 740.1975129082325,395.62442180106757 L730.8142016499961,425.69809587281213"></path><path class="edge section-edge--1 edge-depth-2" d="M 945.475956788988,408.41295335483755 L 1007.1605041146446,436.3936880240301 L1068.8450514403012,464.37442269322275"></path><path class="edge section-edge--1 edge-depth-1" d="M 768.4672548057546,355.3669440166968 L 842.9321087137262,376.7240277165666 L917.3969626216978,398.0811114164364"></path><path class="edge section-edge--1 edge-depth-0" d="M 612.3817263070579,350.5173407391596 L 675.7152419408027,350.83663714726225 L739.0487575745475,351.1559335553649"></path><path class="edge section-edge-0 edge-depth-2" d="M 564.1101444445427,526.2319429490464 L 634.2131867098923,539.9826965559298 L704.3162289752419,553.7334501628131"></path><path class="edge section-edge-0 edge-depth-3" d="M 489.97458404279973,609.2535363251604 L 535.8621554999754,633.7759895791802 L581.7497269571512,658.2984428331999"></path><path class="edge section-edge-0 edge-depth-3" d="M 472.678139365101,616.6218169005529 L 464.10659970306625,647.0511184912252 L455.5350600410315,677.4804200818976"></path><path class="edge section-edge-0 edge-depth-3" d="M 461.8798532589491,604.1892797738543 L 384.97531038897705,614.564995836286 L308.070767519005,624.9407118987177"></path><path class="edge section-edge-0 edge-depth-2" d="M 539.2261859571638,534.3757456106089 L 513.067904440215,562.7642008437417 L486.90962292326606,591.1526560768747"></path><path class="edge section-edge-0 edge-depth-1" d="M 530.4415768275451,445.47256492826295 L 538.1428356732392,477.1212815660597 L545.8440945189333,508.76999820385635"></path><path class="edge section-edge-0 edge-depth-0" d="M 587.4973793930143,361.7242683393505 L 562.1384747344432,390.66978954446597 L536.779570075872,419.61531074958145"></path><path class="edge section-edge-1 edge-depth-2" d="M 371.99476776994993,208.64553132563978 L 302.8866653831907,199.9097375276069 L233.77856299643148,191.173943729574"></path><path class="edge section-edge-1 edge-depth-3" d="M 410.0200292140827,111.72864895306898 L 372.37211553878376,86.06093442868743 L334.72420186348484,60.393219904305866"></path><path class="edge section-edge-1 edge-depth-3" d="M 429.09016381665407,106.7462034010866 L 443.89755296610724,76.95586912562933 L458.7049421155604,47.165534850172065"></path><path class="edge section-edge-1 edge-depth-3" d="M 437.0210926973042,116.7692467495518 L 508.11800077563083,100.17630252249833 L579.2149088539575,83.58335829544487"></path><path class="edge section-edge-1 edge-depth-2" d="M 392.36692854435194,196.5676839319902 L 404.64499230509966,165.3525408868689 L416.9230560658474,134.1373978417476"></path><path class="edge section-edge-1 edge-depth-1" d="M 455.26490303177314,279.3544260345621 L 426.3569226507183,250.26079923055087 L397.4489422696634,221.16717242653965"></path><path class="edge section-edge-1 edge-depth-2" d="M 294.4548311349664,341.445097557458 L 208.19029251851873,336.5253514804255 L121.92575390207102,331.60560540339304"></path><path class="edge section-edge-1 edge-depth-1" d="M 451.6118590693087,294.75213597071485 L 387.63399922786385,316.1470477346658 L323.656139386419,337.5419594986168"></path><path class="edge section-edge-1 edge-depth-2" d="M 526.5839107756731,206.95061586771453 L 609.6245959950542,212.54404687039676 L692.6652812144353,218.13747787307904"></path><path class="edge section-edge-1 edge-depth-1" d="M 473.01225813090883,276.8221138205306 L 488.7276626533964,247.9687281534499 L504.443067175884,219.11534248636923"></path><path class="edge section-edge-1 edge-depth-0" d="M 583.7520579714131,344.1785773180652 L 531.6097094245458,320.2183205037703 L479.46736087767863,296.2580636894754"></path></g><g class="mindmap-nodes"><g transform="translate(561.3958062421691, 331.70838606891806)" class="mindmap-node section-root"><g transform="translate(35.98611068725586, 18.733333015441893)"><circle r="35.98611068725586" class="node-bkg node-circle" id="node-0"></circle></g><g transform="translate(35.98611068725586, 5)"><text text-anchor="middle" dominant-baseline="middle" alignment-baseline="middle" dy="1em"><tspan dy="1em" x="0">Addons</tspan></text></g></g><g transform="translate(697.3094159512038, 332.4982221947227)" class="mindmap-node section-root"><g><path d="M0 32.466666030883786 v-27.466666030883786 q0,-5 5,-5 h103.47830200195312 q5,0 5,5 v32.466666030883786 H0 Z" class="node-bkg node-no-border" id="node-1"></path><line y2="37.466666030883786" x2="113.47830200195312" y1="37.466666030883786" x1="0" class="node-line--1"></line></g><g transform="translate(56.73915100097656, 5)"><text text-anchor="middle" dominant-baseline="middle" alignment-baseline="middle" dy="1em"><tspan dy="1em" x="0">Sync   product</tspan></text></g></g><g transform="translate(845.8048896869773, 274.6838255655603)" class="mindmap-node section-root"><g><path d="M0 32.466666030883786 v-27.466666030883786 q0,-5 5,-5 h40.18055534362793 q5,0 5,5 v32.466666030883786 H0 Z" class="node-bkg node-no-border" id="node-2"></path><line y2="37.466666030883786" x2="50.18055534362793" y1="37.466666030883786" x1="0" class="node-line--1"></line></g><g transform="translate(25.090277671813965, 5)"><text text-anchor="middle" dominant-baseline="middle" alignment-baseline="middle" dy="1em"><tspan dy="1em" x="0">APIs</tspan></text></g></g><g transform="translate(950.4715049124636, 301.46451452864454)" class="mindmap-node section-root"><g><path d="M0 32.466666030883786 v-27.466666030883786 q0,-5 5,-5 h167.76388549804688 q5,0 5,5 v32.466666030883786 H0 Z" class="node-bkg node-no-border" id="node-3"></path><line y2="37.466666030883786" x2="177.76388549804688" y1="37.466666030883786" x1="0" class="node-line--1"></line></g><g transform="translate(88.88194274902344, 5)"><text text-anchor="middle" dominant-baseline="middle" alignment-baseline="middle" dy="1em"><tspan dy="1em" x="0">Validate   input   params</tspan></text></g></g><g transform="translate(854.0352975286405, 196.06854571884952)" class="mindmap-node section-root"><g><path d="M0 32.466666030883786 v-27.466666030883786 q0,-5 5,-5 h178.734375 q5,0 5,5 v32.466666030883786 H0 Z" class="node-bkg node-no-border" id="node-4"></path><line y2="37.466666030883786" x2="188.734375" y1="37.466666030883786" x1="0" class="node-line--1"></line></g><g transform="translate(94.3671875, 5)"><text text-anchor="middle" dominant-baseline="middle" alignment-baseline="middle" dy="1em"><tspan dy="1em" x="0">Authenticate   requester</tspan></text></g></g><g transform="translate(947.4017165951748, 108.27320385935326)" class="mindmap-node section-root"><g><path d="M0 32.466666030883786 v-27.466666030883786 q0,-5 5,-5 h64.20746612548828 q5,0 5,5 v32.466666030883786 H0 Z" class="node-bkg node-no-border" id="node-5"></path><line y2="37.466666030883786" x2="74.20746612548828" y1="37.466666030883786" x1="0" class="node-line--1"></line></g><g transform="translate(37.10373306274414, 5)"><text text-anchor="middle" dominant-baseline="middle" alignment-baseline="middle" dy="1em"><tspan dy="1em" x="0">API   key</tspan></text></g></g><g transform="translate(834.1503867653428, 124.29173483421579)" class="mindmap-node section-root"><g><path d="M0 32.466666030883786 v-27.466666030883786 q0,-5 5,-5 h41.03559112548828 q5,0 5,5 v32.466666030883786 H0 Z" class="node-bkg node-no-border" id="node-6"></path><line y2="37.466666030883786" x2="51.03559112548828" y1="37.466666030883786" x1="0" class="node-line--1"></line></g><g transform="translate(25.51779556274414, 5)"><text text-anchor="middle" dominant-baseline="middle" alignment-baseline="middle" dy="1em"><tspan dy="1em" x="0">JWT</tspan></text></g></g><g transform="translate(1096.96724713584, 169.53130356340188)" class="mindmap-node section-root"><g><path d="M0 32.466666030883786 v-27.466666030883786 q0,-5 5,-5 h61.41232681274414 q5,0 5,5 v32.466666030883786 H0 Z" class="node-bkg node-no-border" id="node-7"></path><line y2="37.466666030883786" x2="71.41232681274414" y1="37.466666030883786" x1="0" class="node-line--1"></line></g><g transform="translate(35.70616340637207, 5)"><text text-anchor="middle" dominant-baseline="middle" alignment-baseline="middle" dy="1em"><tspan dy="1em" x="0">Session</tspan></text></g></g><g transform="translate(640.5300526142846, 421.2839553765287)" class="mindmap-node section-root"><g><path d="M0 32.466666030883786 v-27.466666030883786 q0,-5 5,-5 h161.6328125 q5,0 5,5 v32.466666030883786 H0 Z" class="node-bkg node-no-border" id="node-8"></path><line y2="37.466666030883786" x2="171.6328125" y1="37.466666030883786" x1="0" class="node-line--1"></line></g><g transform="translate(85.81640625, 5)"><text text-anchor="middle" dominant-baseline="middle" alignment-baseline="middle" dy="1em"><tspan dy="1em" x="0">Manage   sync   product</tspan></text></g></g><g transform="translate(853.7114863517368, 383.4831672075267)" class="mindmap-node section-root"><g><path d="M0 32.466666030883786 v-27.466666030883786 q0,-5 5,-5 h146.2083282470703 q5,0 5,5 v32.466666030883786 H0 Z" class="node-bkg node-no-border" id="node-9"></path><line y2="37.466666030883786" x2="156.2083282470703" y1="37.466666030883786" x1="0" class="node-line--1"></line></g><g transform="translate(78.10416412353516, 5)"><text text-anchor="middle" dominant-baseline="middle" alignment-baseline="middle" dy="1em"><tspan dy="1em" x="0">SyncProduct   model</tspan></text></g></g><g transform="translate(988.0053577540173, 443.037542618915)" class="mindmap-node section-root"><g><path d="M0 50.06666641235351 v-45.06666641235351 q0,-5 5,-5 h179 q5,0 5,5 v50.06666641235351 H0 Z" class="node-bkg node-no-border" id="node-10"></path><line y2="55.06666641235351" x2="189" y1="55.06666641235351" x1="0" class="node-line--1"></line></g><g transform="translate(94.5, 5)"><text text-anchor="middle" dominant-baseline="middle" alignment-baseline="middle" dy="1em"><tspan dy="1em" x="0">Use   uniquid   to   mapping</tspan><tspan dy="1.1em" x="0">product   indentify</tspan></text></g></g><g transform="translate(464.7652565384848, 412.16452698913014)" class="mindmap-node section-0"><g><path d="M0 32.466666030883786 v-27.466666030883786 q0,-5 5,-5 h114.25955200195312 q5,0 5,5 v32.466666030883786 H0 Z" class="node-bkg node-no-border" id="node-11"></path><line y2="37.466666030883786" x2="124.25955200195312" y1="37.466666030883786" x1="0" class="node-line-0"></line></g><g transform="translate(62.12977600097656, 5)"><text text-anchor="middle" dominant-baseline="middle" alignment-baseline="middle" dy="1em"><tspan dy="1em" x="0">Sync   customer</tspan></text></g></g><g transform="translate(524.300361135203, 504.6113701121054)" class="mindmap-node section-0"><g><path d="M0 32.466666030883786 v-27.466666030883786 q0,-5 5,-5 h40.18055534362793 q5,0 5,5 v32.466666030883786 H0 Z" class="node-bkg node-no-border" id="node-12"></path><line y2="37.466666030883786" x2="50.18055534362793" y1="37.466666030883786" x1="0" class="node-line-0"></line></g><g transform="translate(25.090277671813965, 5)"><text text-anchor="middle" dominant-baseline="middle" alignment-baseline="middle" dy="1em"><tspan dy="1em" x="0">APIs</tspan></text></g></g><g transform="translate(630.1537918637441, 537.8873569688703)" class="mindmap-node section-0"><g><path d="M0 32.466666030883786 v-27.466666030883786 q0,-5 5,-5 h167.76388549804688 q5,0 5,5 v32.466666030883786 H0 Z" class="node-bkg node-no-border" id="node-13"></path><line y2="37.466666030883786" x2="177.76388549804688" y1="37.466666030883786" x1="0" class="node-line-0"></line></g><g transform="translate(88.88194274902344, 5)"><text text-anchor="middle" dominant-baseline="middle" alignment-baseline="middle" dy="1em"><tspan dy="1em" x="0">Validate   input   params</tspan></text></g></g><g transform="translate(382.37798257341285, 583.4503655444944)" class="mindmap-node section-0"><g><path d="M0 32.466666030883786 v-27.466666030883786 q0,-5 5,-5 h178.734375 q5,0 5,5 v32.466666030883786 H0 Z" class="node-bkg node-no-border" id="node-14"></path><line y2="37.466666030883786" x2="188.734375" y1="37.466666030883786" x1="0" class="node-line-0"></line></g><g transform="translate(94.3671875, 5)"><text text-anchor="middle" dominant-baseline="middle" alignment-baseline="middle" dy="1em"><tspan dy="1em" x="0">Authenticate   requester</tspan></text></g></g><g transform="translate(557.875407863794, 646.6349475829822)" class="mindmap-node section-0"><g><path d="M0 32.466666030883786 v-27.466666030883786 q0,-5 5,-5 h64.20746612548828 q5,0 5,5 v32.466666030883786 H0 Z" class="node-bkg node-no-border" id="node-15"></path><line y2="37.466666030883786" x2="74.20746612548828" y1="37.466666030883786" x1="0" class="node-line-0"></line></g><g transform="translate(37.10373306274414, 5)"><text text-anchor="middle" dominant-baseline="middle" alignment-baseline="middle" dy="1em"><tspan dy="1em" x="0">API   key</tspan></text></g></g><g transform="translate(425.9502337699755, 673.1852054070723)" class="mindmap-node section-0"><g><path d="M0 32.466666030883786 v-27.466666030883786 q0,-5 5,-5 h41.03559112548828 q5,0 5,5 v32.466666030883786 H0 Z" class="node-bkg node-no-border" id="node-16"></path><line y2="37.466666030883786" x2="51.03559112548828" y1="37.466666030883786" x1="0" class="node-line-0"></line></g><g transform="translate(25.51779556274414, 5)"><text text-anchor="middle" dominant-baseline="middle" alignment-baseline="middle" dy="1em"><tspan dy="1em" x="0">JWT</tspan></text></g></g><g transform="translate(257.4992872981692, 608.2129600971939)" class="mindmap-node section-0"><g><path d="M0 32.466666030883786 v-27.466666030883786 q0,-5 5,-5 h61.41232681274414 q5,0 5,5 v32.466666030883786 H0 Z" class="node-bkg node-no-border" id="node-17"></path><line y2="37.466666030883786" x2="71.41232681274414" y1="37.466666030883786" x1="0" class="node-line-0"></line></g><g transform="translate(35.70616340637207, 5)"><text text-anchor="middle" dominant-baseline="middle" alignment-baseline="middle" dy="1em"><tspan dy="1em" x="0">Session</tspan></text></g></g><g transform="translate(417.52413216869024, 271.2615889077388)" class="mindmap-node section-1"><g><path d="M0 32.466666030883786 v-27.466666030883786 q0,-5 5,-5 h86.62673950195312 q5,0 5,5 v32.466666030883786 H0 Z" class="node-bkg node-no-border" id="node-18"></path><line y2="37.466666030883786" x2="96.62673950195312" y1="37.466666030883786" x1="0" class="node-line-1"></line></g><g transform="translate(48.31336975097656, 5)"><text text-anchor="middle" dominant-baseline="middle" alignment-baseline="middle" dy="1em"><tspan dy="1em" x="0">Sync   order</tspan></text></g></g><g transform="translate(361.7860657099558, 191.79334352247912)" class="mindmap-node section-1"><g><path d="M0 32.466666030883786 v-27.466666030883786 q0,-5 5,-5 h40.18055534362793 q5,0 5,5 v32.466666030883786 H0 Z" class="node-bkg node-no-border" id="node-19"></path><line y2="37.466666030883786" x2="50.18055534362793" y1="37.466666030883786" x1="0" class="node-line-1"></line></g><g transform="translate(25.090277671813965, 5)"><text text-anchor="middle" dominant-baseline="middle" alignment-baseline="middle" dy="1em"><tspan dy="1em" x="0">APIs</tspan></text></g></g><g transform="translate(130.0150446355882, 170.55946550185087)" class="mindmap-node section-1"><g><path d="M0 32.466666030883786 v-27.466666030883786 q0,-5 5,-5 h167.76388549804688 q5,0 5,5 v32.466666030883786 H0 Z" class="node-bkg node-no-border" id="node-20"></path><line y2="37.466666030883786" x2="177.76388549804688" y1="37.466666030883786" x1="0" class="node-line-1"></line></g><g transform="translate(88.88194274902344, 5)"><text text-anchor="middle" dominant-baseline="middle" alignment-baseline="middle" dy="1em"><tspan dy="1em" x="0">Validate   input   params</tspan></text></g></g><g transform="translate(328.0464537284296, 101.44507222037487)" class="mindmap-node section-1"><g><path d="M0 32.466666030883786 v-27.466666030883786 q0,-5 5,-5 h178.734375 q5,0 5,5 v32.466666030883786 H0 Z" class="node-bkg node-no-border" id="node-21"></path><line y2="37.466666030883786" x2="188.734375" y1="37.466666030883786" x1="0" class="node-line-1"></line></g><g transform="translate(94.3671875, 5)"><text text-anchor="middle" dominant-baseline="middle" alignment-baseline="middle" dy="1em"><tspan dy="1em" x="0">Authenticate   requester</tspan></text></g></g><g transform="translate(285.2268567863938, 33.210130606116195)" class="mindmap-node section-1"><g><path d="M0 32.466666030883786 v-27.466666030883786 q0,-5 5,-5 h64.20746612548828 q5,0 5,5 v32.466666030883786 H0 Z" class="node-bkg node-no-border" id="node-22"></path><line y2="37.466666030883786" x2="74.20746612548828" y1="37.466666030883786" x1="0" class="node-line-1"></line></g><g transform="translate(37.10373306274414, 5)"><text text-anchor="middle" dominant-baseline="middle" alignment-baseline="middle" dy="1em"><tspan dy="1em" x="0">API   key</tspan></text></g></g><g transform="translate(439.86366914104076, 15)" class="mindmap-node section-1"><g><path d="M0 32.466666030883786 v-27.466666030883786 q0,-5 5,-5 h41.03559112548828 q5,0 5,5 v32.466666030883786 H0 Z" class="node-bkg node-no-border" id="node-23"></path><line y2="37.466666030883786" x2="51.03559112548828" y1="37.466666030883786" x1="0" class="node-line-1"></line></g><g transform="translate(25.51779556274414, 5)"><text text-anchor="middle" dominant-baseline="middle" alignment-baseline="middle" dy="1em"><tspan dy="1em" x="0">JWT</tspan></text></g></g><g transform="translate(558.11619691646, 61.440866793738)" class="mindmap-node section-1"><g><path d="M0 32.466666030883786 v-27.466666030883786 q0,-5 5,-5 h61.41232681274414 q5,0 5,5 v32.466666030883786 H0 Z" class="node-bkg node-no-border" id="node-24"></path><line y2="37.466666030883786" x2="71.41232681274414" y1="37.466666030883786" x1="0" class="node-line-1"></line></g><g transform="translate(35.70616340637207, 5)"><text text-anchor="middle" dominant-baseline="middle" alignment-baseline="middle" dy="1em"><tspan dy="1em" x="0">Session</tspan></text></g></g><g transform="translate(252.69134553508434, 323.56584053070907)" class="mindmap-node section-1"><g><path d="M0 32.466666030883786 v-27.466666030883786 q0,-5 5,-5 h103.47830200195312 q5,0 5,5 v32.466666030883786 H0 Z" class="node-bkg node-no-border" id="node-25"></path><line y2="37.466666030883786" x2="113.47830200195312" y1="37.466666030883786" x1="0" class="node-line-1"></line></g><g transform="translate(56.73915100097656, 5)"><text text-anchor="middle" dominant-baseline="middle" alignment-baseline="middle" dy="1em"><tspan dy="1em" x="0">Sync   product</tspan></text></g></g><g transform="translate(15, 303.21819620852335)" class="mindmap-node section-1"><g><path d="M0 50.06666641235351 v-45.06666641235351 q0,-5 5,-5 h173.90017700195312 q5,0 5,5 v50.06666641235351 H0 Z" class="node-bkg node-no-border" id="node-26"></path><line y2="55.06666641235351" x2="183.90017700195312" y1="55.06666641235351" x1="0" class="node-line-1"></line></g><g transform="translate(91.95008850097656, 5)"><text text-anchor="middle" dominant-baseline="middle" alignment-baseline="middle" dy="1em"><tspan dy="1em" x="0">Send   request   to   sync</tspan><tspan dy="1.1em" x="0">product   if   it's   not   exist</tspan></text></g></g><g transform="translate(455.85132863614945, 187.2092013682772)" class="mindmap-node section-1"><g><path d="M0 32.466666030883786 v-27.466666030883786 q0,-5 5,-5 h101.53298950195312 q5,0 5,5 v32.466666030883786 H0 Z" class="node-bkg node-no-border" id="node-27"></path><line y2="37.466666030883786" x2="111.53298950195312" y1="37.466666030883786" x1="0" class="node-line-1"></line></g><g transform="translate(55.76649475097656, 5)"><text text-anchor="middle" dominant-baseline="middle" alignment-baseline="middle" dy="1em"><tspan dy="1em" x="0">Sync   partner</tspan></text></g></g><g transform="translate(615.1929988520058, 182.81222500648852)" class="mindmap-node section-1"><g><path d="M0 67.66666870117187 v-62.66666870117187 q0,-5 5,-5 h174.87673950195312 q5,0 5,5 v67.66666870117187 H0 Z" class="node-bkg node-no-border" id="node-28"></path><line y2="72.66666870117187" x2="184.87673950195312" y1="72.66666870117187" x1="0" class="node-line-1"></line></g><g transform="translate(92.43836975097656, 5)"><text text-anchor="middle" dominant-baseline="middle" alignment-baseline="middle" dy="1em"><tspan dy="1em" x="0">Send   request   to   sync</tspan><tspan dy="1.1em" x="0">customer   if   they're   not</tspan><tspan dy="1.1em" x="0">exist</tspan></text></g></g></g></svg>