<?xml version="1.0" standalone="no"?>
<!DOCTYPE svg PUBLIC "-//W3C//DTD SVG 20010904//EN"
 "http://www.w3.org/TR/2001/REC-SVG-20010904/DTD/svg10.dtd">
<svg version="1.0" xmlns="http://www.w3.org/2000/svg"
 width="900.000000pt" height="900.000000pt" viewBox="0 0 900.000000 900.000000"
 preserveAspectRatio="xMidYMid meet">
<metadata>
Created by potrace 1.16, written by Peter Selinger 2001-2019
</metadata>
<g transform="translate(0.000000,900.000000) scale(0.100000,-0.100000)"
fill="#000000" stroke="none">
<path d="M4185 7769 c-33 -4 -82 -9 -110 -10 -115 -4 -450 -80 -655 -150 -359
-121 -744 -337 -1040 -582 -111 -92 -328 -310 -416 -417 -101 -122 -213 -279
-274 -381 -187 -316 -302 -589 -384 -914 -70 -274 -86 -405 -93 -741 -4 -197
-2 -283 12 -405 9 -84 17 -161 17 -169 0 -25 35 -191 67 -316 139 -549 444
-1086 851 -1494 249 -251 531 -451 874 -620 232 -115 497 -214 646 -243 14 -2
77 -16 140 -30 103 -22 321 -56 360 -55 8 0 89 -3 180 -7 190 -7 494 7 625 30
705 122 1291 416 1789 895 91 88 254 273 340 388 79 104 222 336 291 472 179
352 295 744 340 1147 23 206 16 614 -13 793 -68 412 -184 770 -349 1080 -67
125 -211 353 -273 431 -25 31 -62 78 -83 105 -299 382 -760 730 -1256 949
-221 96 -643 212 -843 230 -29 3 -97 10 -152 15 -115 12 -504 11 -591 -1z
m-1545 -2504 l0 -85 -72 0 c-88 0 -133 -20 -160 -70 -16 -31 -18 -61 -18 -261
0 -253 -10 -311 -58 -351 l-28 -23 32 -32 c46 -45 54 -99 54 -354 0 -233 3
-252 50 -294 17 -16 41 -21 108 -25 l87 -5 3 -89 3 -89 -98 5 c-161 8 -261 67
-317 187 -19 42 -21 69 -26 291 -6 277 -11 298 -75 321 l-36 13 3 71 c3 61 6
70 23 73 31 6 64 42 75 81 5 20 10 131 10 248 0 245 11 291 83 371 71 76 133
100 265 101 l92 1 0 -85z m3955 53 c68 -35 128 -102 154 -172 19 -51 21 -77
21 -262 0 -116 5 -224 11 -249 12 -46 41 -81 74 -87 17 -3 20 -12 23 -73 l3
-71 -36 -13 c-64 -23 -69 -44 -75 -321 -5 -223 -7 -249 -26 -291 -60 -128
-186 -196 -351 -187 l-58 3 0 85 0 85 87 5 c82 5 90 7 119 36 42 43 48 81 49
329 0 116 5 226 10 246 5 19 23 48 40 64 29 28 29 29 10 42 -50 35 -55 62 -60
333 -5 216 -8 260 -23 287 -27 51 -60 67 -151 73 l-81 5 -3 84 -3 83 108 -4
c92 -3 115 -8 158 -30z m-909 -57 c118 -54 112 -230 -10 -276 -104 -40 -209
31 -209 141 0 57 30 105 83 132 53 27 82 27 136 3z m-1911 -386 c133 -34 205
-89 254 -195 l26 -55 3 -367 3 -368 -130 0 -131 0 0 46 0 46 -32 -28 c-80 -67
-219 -103 -327 -84 -128 22 -218 86 -264 189 -31 68 -30 198 2 264 31 63 83
114 151 146 50 24 66 26 175 26 111 0 125 -2 180 -28 33 -16 73 -40 88 -55
l29 -27 -4 97 c-3 95 -4 98 -38 133 -86 89 -291 82 -411 -15 -21 -16 -41 -30
-46 -30 -4 0 -28 38 -53 84 l-44 84 24 21 c42 35 185 101 252 116 85 18 221
18 293 0z m1226 -4 c145 -46 245 -160 284 -323 20 -83 19 -267 0 -343 -49
-190 -169 -306 -348 -336 -116 -19 -238 17 -327 97 l-40 36 -2 -243 -3 -244
-125 0 -125 0 0 675 0 675 128 3 127 3 0 -62 0 -62 44 41 c105 97 245 127 387
83z m749 -491 l0 -490 -130 0 -130 0 0 490 0 490 130 0 130 0 0 -490z"/>
<path d="M3517 4315 c-105 -37 -139 -151 -67 -223 72 -73 242 -67 328 11 18
17 22 31 22 84 0 62 -1 63 -41 92 -65 48 -168 63 -242 36z"/>
<path d="M4720 4651 c-40 -13 -85 -38 -119 -67 l-31 -26 0 -177 0 -177 33 -32
c101 -98 270 -101 358 -5 91 98 99 292 17 404 -37 50 -100 81 -171 85 -34 2
-73 0 -87 -5z"/>
</g>
</svg>
